<?xml version="1.0" encoding="UTF-8" standalone="no"?>
<svg
   xmlns:dc="http://purl.org/dc/elements/1.1/"
   xmlns:cc="http://creativecommons.org/ns#"
   xmlns:rdf="http://www.w3.org/1999/02/22-rdf-syntax-ns#"
   xmlns:svg="http://www.w3.org/2000/svg"
   xmlns="http://www.w3.org/2000/svg"
   xmlns:sodipodi="http://sodipodi.sourceforge.net/DTD/sodipodi-0.dtd"
   xmlns:inkscape="http://www.inkscape.org/namespaces/inkscape"
   version="1.1"
   id="svg2"
   xml:space="preserve"
   width="4252"
   height="2666.6667"
   viewBox="0 0 4252 2666.6667"
   sodipodi:docname="10087.eps"><metadata
     id="metadata8"><rdf:RDF><cc:Work
         rdf:about=""><dc:format>image/svg+xml</dc:format><dc:type
           rdf:resource="http://purl.org/dc/dcmitype/StillImage" /></cc:Work></rdf:RDF></metadata><defs
     id="defs6" /><sodipodi:namedview
     pagecolor="#ffffff"
     bordercolor="#666666"
     borderopacity="1"
     objecttolerance="10"
     gridtolerance="10"
     guidetolerance="10"
     inkscape:pageopacity="0"
     inkscape:pageshadow="2"
     inkscape:window-width="640"
     inkscape:window-height="480"
     id="namedview4" /><g
     id="g10"
     inkscape:groupmode="layer"
     inkscape:label="ink_ext_XXXXXX"
     transform="matrix(1.3333333,0,0,-1.3333333,0,2666.6667)"><g
       id="g12"
       transform="scale(0.1)"><path
         d="M 0,0 H 31890 V 20000 H 0 Z"
         style="fill:#ffffff;fill-opacity:1;fill-rule:nonzero;stroke:none"
         id="path14" /><path
         d="m 26737.4,1701.1 c 960.2,1441.9 3330.2,9521.6 1782.2,10462.1 -801.7,487 -1529.1,361.8 -2214.2,236.6 -768.1,-140.4 -1482.9,-280.8 -2189.3,442 -582.7,596.5 -101.2,2076.6 -1305.8,2562.9 -713.2,287.8 -1878.9,-1.6 -2939,-291.1 -1455.2,-397.4 -2711.5,-794.7 -2325,301.2 668.2,1894.3 -3877.1,3201 -8212.19,2950.1 -4335.13,-250.8 -3530.42,-2818.4 -3469.68,-3233.7 60.73,-415.4 698.48,-2421 -1771.53,-3342.8 C 1622.9,10866.6 2189.79,9610.5 2432.74,8891.2 2644.33,8264.8 3839.83,7523.7 2098.67,5903 649.07,4553.6 1785.06,2388.4 2206.15,1701.1 H 26737.4"
         style="fill:#5c91c6;fill-opacity:1;fill-rule:nonzero;stroke:none"
         id="path16" /><path
         d="m 2029.51,5836 c 0.12,0.1 0.14,0.2 0.25,0.3 -0.08,-0.1 -0.16,-0.2 -0.25,-0.3 m 8.06,8.1 c 0.11,0.1 0.15,0.2 0.26,0.3 -0.08,-0.1 -0.18,-0.2 -0.26,-0.3 m 8.07,8 c 0.11,0.1 0.26,0.3 0.37,0.4 -0.08,-0.1 -0.29,-0.3 -0.37,-0.4 m 5.58,5.5 c 0.05,0.1 0.17,0.2 0.22,0.2 l -0.22,-0.2 m 2.64,2.6 c 0.11,0.1 0.17,0.2 0.29,0.3 -0.09,-0.1 -0.21,-0.2 -0.29,-0.3 m 5.59,5.5 c 0.06,0 0.15,0.1 0.21,0.2 -0.09,-0.1 -0.13,-0.2 -0.21,-0.2 m 2.56,2.4 c 0.11,0.2 0.34,0.4 0.45,0.5 -0.08,-0.1 -0.37,-0.4 -0.45,-0.5 m 5.64,5.5 c 0.17,0.2 0.26,0.2 0.44,0.4 -0.09,-0.1 -0.35,-0.3 -0.44,-0.4 m 2.64,2.5 c 0.18,0.2 0.3,0.3 0.47,0.5 -0.17,-0.2 -0.29,-0.3 -0.47,-0.5 m 5.72,5.5 c 0.12,0.1 0.26,0.3 0.37,0.4 -0.08,-0.1 -0.28,-0.3 -0.37,-0.4 m 2.58,2.5 c 0.18,0.1 0.4,0.4 0.58,0.5 -0.18,-0.1 -0.4,-0.4 -0.58,-0.5 m 5.73,5.4 c 0.18,0.2 0.44,0.4 0.61,0.6 -0.17,-0.2 -0.44,-0.4 -0.61,-0.6 m 2.66,2.5 c 0.18,0.2 0.44,0.4 0.61,0.6 -0.17,-0.2 -0.43,-0.4 -0.61,-0.6 m 3.11,3 h 0.1 -0.1 m 2.67,2.5 c 0.18,0.1 0.48,0.4 0.66,0.6 -0.18,-0.2 -0.48,-0.5 -0.66,-0.6 m 2.64,2.4 c 0.18,0.2 0.52,0.5 0.7,0.7 -0.18,-0.2 -0.52,-0.5 -0.7,-0.7 m 5.82,5.4 c 472.03,439.9 727.63,814.9 845.36,1140.4 -117.73,-325.5 -373.33,-700.5 -845.36,-1140.4 m 332.14,2984.1 c -0.21,0.6 -0.42,1.2 -0.62,1.8 -1.94,5.8 -3.89,11.5 -5.86,17.3 1.97,-5.8 3.93,-11.5 5.86,-17.3 0.2,-0.6 0.41,-1.2 0.62,-1.8 m -7.3,21.5 c -0.68,2 -1.35,4 -2.02,5.9 -1.46,4.3 -2.92,8.5 -4.39,12.8 -0.89,2.6 -1.79,5.2 -2.68,7.8 -1.41,4.1 -2.84,8.3 -4.27,12.4 -0.89,2.6 -1.78,5.2 -2.68,7.8 -0.49,1.4 -0.98,2.8 -1.48,4.3 5.97,-17.3 11.81,-34.3 17.52,-51 m -18.66,54.3 c -0.28,0.8 -0.55,1.6 -0.83,2.4 -5.35,15.4 -10.79,31.1 -16.29,47 5.78,-16.7 11.5,-33.2 17.12,-49.4 m 1676.23,2819.7 c 3.08,1.1 6.17,2.3 9.27,3.5 -3.17,-1.2 -6.12,-2.3 -9.27,-3.5 m 9.27,3.5 c 19.78,7.3 39.34,14.8 58.72,22.3 4.51,1.7 8.91,3.5 13.39,5.3 14.96,5.9 29.89,11.7 44.61,17.7 4,1.6 7.91,3.2 11.88,4.8 15.21,6.2 30.36,12.4 45.31,18.7 2.96,1.2 5.88,2.5 8.84,3.7 15.95,6.8 31.79,13.5 47.46,20.3 1.87,0.9 3.71,1.7 5.57,2.5 16.72,7.3 33.29,14.6 49.68,22.1 0.97,0.4 1.92,0.8 2.87,1.3 17.25,7.8 34.31,15.7 51.2,23.6 l 0.95,0.4 c 35.13,16.5 69.48,33.3 103.1,50.3 h 0.06 v -0.1 c -135.41,-68.4 -282.93,-133 -443.64,-192.9 m 21503.2,505.9 v 0 c 192.6,14.4 387.9,47.2 586.6,83.1 -198.7,-35.9 -394,-68.7 -586.6,-83.1 M 5854.49,13383.9 v 0.2 c 4.62,13.5 9.14,27 13.48,40.5 h 0.03 c -4.33,-13.5 -8.88,-27.2 -13.51,-40.7"
         style="fill:#adc8e2;fill-opacity:1;fill-rule:nonzero;stroke:none"
         id="path18" /><path
         d="M 27028,2244 1673.65,2783.8 c -348.26,923.3 -536.21,2153.8 355.86,3052.2 0.09,0.1 0.17,0.2 0.25,0.3 2.57,2.6 5.22,5.2 7.81,7.8 0.08,0.1 0.18,0.2 0.26,0.3 2.59,2.5 5.2,5.1 7.81,7.7 0.08,0.1 0.29,0.3 0.37,0.4 1.76,1.7 3.44,3.4 5.21,5.1 l 0.22,0.2 c 0.8,0.8 1.62,1.6 2.42,2.4 0.08,0.1 0.2,0.2 0.29,0.3 1.77,1.7 3.52,3.4 5.3,5.2 0.08,0 0.12,0.1 0.21,0.2 0.8,0.7 1.54,1.5 2.35,2.2 0.08,0.1 0.37,0.4 0.45,0.5 1.73,1.7 3.46,3.3 5.19,5 0.09,0.1 0.35,0.3 0.44,0.4 0.69,0.7 1.51,1.5 2.2,2.1 0.18,0.2 0.3,0.3 0.47,0.5 1.74,1.7 3.51,3.3 5.25,5 0.09,0.1 0.29,0.3 0.37,0.4 0.76,0.7 1.46,1.4 2.21,2.1 0.18,0.1 0.4,0.4 0.58,0.5 1.75,1.7 3.39,3.2 5.15,4.9 0.17,0.2 0.44,0.4 0.61,0.6 0.71,0.7 1.35,1.3 2.05,1.9 0.18,0.2 0.44,0.4 0.61,0.6 0.88,0.8 1.62,1.5 2.5,2.4 h 0.1 c 0.88,0.9 1.69,1.6 2.57,2.5 0.18,0.1 0.48,0.4 0.66,0.6 0.7,0.6 1.27,1.2 1.98,1.8 0.18,0.2 0.52,0.5 0.7,0.7 0.89,0.8 1.68,1.5 2.57,2.4 0.85,0.8 1.7,1.6 2.55,2.3 472.03,439.9 727.63,814.9 845.36,1140.4 315.19,871.5 -357.99,1388.2 -513.22,1843.7 -0.21,0.6 -0.42,1.2 -0.62,1.8 -1.93,5.8 -3.89,11.5 -5.86,17.3 -0.21,0.6 -0.42,1.2 -0.63,1.9 -0.07,0.2 -0.13,0.3 -0.19,0.5 -5.71,16.7 -11.55,33.7 -17.52,51 -0.38,1.1 -0.76,2.2 -1.14,3.3 -5.62,16.2 -11.34,32.7 -17.12,49.4 -2.99,8.7 -6,17.4 -9.02,26.1 l -0.18,0.6 c -2.46,7.1 -4.95,14.3 -7.42,21.5 l -0.32,1 c -7.66,22.3 -15.37,45 -23.06,68.1 l -0.43,1.3 c -2.38,7.1 -4.74,14.2 -7.12,21.4 l -0.68,2.1 c -10.22,31.1 -20.34,62.7 -30.2,94.9 l -0.23,0.8 c -2.4,7.8 -4.8,15.7 -7.17,23.6 l -0.23,0.8 c -9.82,32.8 -19.32,66.2 -28.33,100.1 h -0.02 c -97.22,365.6 -137.43,791.4 105.9,1218.8 h 0.01 l 232.77,313 c 8.68,9.3 17.51,18.6 26.51,27.9 l 1.89,1.9 c 8.68,8.9 17.51,17.9 26.49,26.8 l 1.51,1.5 c 38.12,37.8 79.03,75.4 122.88,112.9 1.03,0.9 2.08,1.8 3.11,2.7 9.74,8.3 19.63,16.5 29.65,24.8 1.5,1.3 3,2.5 4.51,3.8 10.11,8.3 20.36,16.6 30.76,24.9 1.08,0.8 2.15,1.7 3.23,2.5 34.99,27.8 71.65,55.5 110.07,83.1 1.49,1 3,2.1 4.48,3.2 10.95,7.8 22.05,15.6 33.28,23.4 2.59,1.8 5.2,3.6 7.8,5.4 10.49,7.2 21.1,14.5 31.83,21.7 2.77,1.9 5.52,3.7 8.3,5.6 11.35,7.6 22.85,15.1 34.49,22.7 1.99,1.3 3.96,2.6 5.97,3.9 27.87,18 56.52,36 85.99,54 1.57,0.9 3.17,1.9 4.73,2.8 12.69,7.7 25.53,15.4 38.53,23.1 3.72,2.1 7.49,4.3 11.24,6.5 11.08,6.5 22.26,13 33.57,19.5 4.38,2.5 8.77,5 13.19,7.5 11.17,6.3 22.45,12.7 33.83,19 4.29,2.4 8.54,4.7 12.86,7.1 12.72,7 25.6,14 38.58,21 2.93,1.6 5.82,3.2 8.77,4.7 32.21,17.3 65.26,34.4 99.12,51.5 4.58,2.3 9.25,4.6 13.87,6.9 12.19,6.1 24.47,12.2 36.87,18.3 5.76,2.8 11.56,5.6 17.37,8.5 11.64,5.6 23.37,11.3 35.2,16.9 6.06,2.9 12.14,5.7 18.25,8.6 12.13,5.8 24.38,11.5 36.71,17.2 5.78,2.6 11.51,5.3 17.34,8 14.82,6.8 29.8,13.5 44.9,20.3 3.31,1.5 6.56,3 9.9,4.5 18.56,8.2 37.34,16.5 56.33,24.7 4.56,2 9.23,3.9 13.82,5.9 14.37,6.2 28.82,12.4 43.43,18.5 6.82,2.9 13.72,5.8 20.59,8.6 12.68,5.3 25.43,10.6 38.3,15.9 7.46,3 14.97,6.1 22.5,9.1 12.75,5.2 25.6,10.4 38.52,15.5 7.49,3 14.96,6 22.5,8.9 13.95,5.5 28.04,11 42.19,16.5 6.56,2.5 13.06,5.1 19.67,7.6 17.74,6.8 35.6,13.6 53.65,20.4 3.15,1.2 6.1,2.3 9.27,3.5 v 0 0 c 160.71,59.9 308.23,124.5 443.64,192.9 v -753.9 h 1317.95 v 2156.5 c 4.63,13.5 9.18,27.2 13.51,40.7 h 849.14 v -576.7 h 812.22 v 2362 l 837.44,837.7 h 453.04 v -4820 h 961 v 906.1 h 796.26 v -1235.9 h 659 v 2746.5 H 12856 V 12738 h 2855.5 v -1076 h 961 l 2073,1007.3 h 535.5 v -1881.4 h 549.1 c 0,164.8 0,3103.6 0,3103.6 h 1839.6 v -2774 h 1180.7 v 1565.6 h 1153.2 v -959 h 1592.5 v 570.2 c 192.6,14.4 387.9,47.2 586.6,83.1 121.1,21.9 243.4,45 367.2,65.7 2.8,0.5 5.6,1 8.4,1.4 6.9,1.2 13.8,2.3 20.8,3.5 5.4,0.9 10.9,1.8 16.4,2.7 6,0.9 12,1.9 18,2.8 6.4,1.1 12.8,2.1 19.2,3.1 5.5,0.9 11,1.7 16.5,2.6 7.1,1.1 14.1,2.2 21.2,3.2 5.1,0.8 10.1,1.5 15.1,2.3 7.6,1.1 15.1,2.2 22.7,3.3 4.7,0.7 9.4,1.4 14,2.1 8.2,1.1 16.4,2.3 24.5,3.4 4.2,0.6 8.3,1.2 12.4,1.7 9.2,1.3 18.5,2.5 27.7,3.7 3.1,0.4 6.1,0.8 9.2,1.2 11.4,1.5 22.8,2.9 34.2,4.3 1,0.2 2,0.3 3,0.4 38.4,4.7 77,8.9 115.6,12.5 1.8,0.2 3.5,0.3 5.2,0.5 11,1 21.9,2 32.9,2.9 2.4,0.2 4.9,0.4 7.3,0.7 10.4,0.8 20.7,1.6 31.1,2.4 2.7,0.2 5.4,0.4 8.1,0.6 10.2,0.7 20.4,1.4 30.7,2.1 2.6,0.1 5.3,0.3 8,0.5 10.5,0.6 21,1.2 31.5,1.7 2.3,0.2 4.7,0.3 7,0.4 11.2,0.6 22.5,1.1 33.7,1.5 1.6,0.1 3.1,0.1 4.7,0.2 38.1,1.4 76.2,2.2 114.6,2.2 27.7,0 55.6,-0.4 83.5,-1.2 1.1,-0.1 2.3,-0.1 3.4,-0.1 12,-0.4 23.9,-0.9 35.8,-1.4 1.9,-0.1 3.7,-0.2 5.6,-0.3 11.3,-0.5 22.7,-1.1 34.1,-1.8 2.1,-0.1 4.2,-0.2 6.3,-0.4 11.3,-0.7 22.6,-1.4 33.9,-2.3 2,-0.1 4,-0.3 6,-0.5 11.8,-0.9 23.5,-1.9 35.2,-2.9 1.5,-0.2 3,-0.3 4.6,-0.5 12.9,-1.2 25.8,-2.5 38.8,-3.9 l 0.7,-0.1 c 54.5,-6 109.3,-14 164.4,-24 l 1.3,-0.3 c 12.9,-2.3 25.9,-4.8 38.9,-7.4 1.6,-0.4 3.2,-0.7 4.8,-1 11.9,-2.5 23.8,-5 35.7,-7.6 2.1,-0.5 4.3,-0.9 6.4,-1.4 11.5,-2.6 23,-5.2 34.5,-8 2.3,-0.6 4.6,-1.1 6.9,-1.7 11.6,-2.8 23.2,-5.7 34.9,-8.7 2,-0.6 4,-1.1 6.1,-1.6 12.3,-3.3 24.6,-6.6 36.9,-10.1 1.3,-0.3 2.6,-0.7 3.9,-1.1 55.8,-15.8 111.9,-34 168.4,-54.9 h 0.1 V 9167.5 h 842 v -0.2 C 28636.8,6785.3 27685.9,3663.9 27028,2244"
         style="fill:#3e71b0;fill-opacity:1;fill-rule:nonzero;stroke:none"
         id="path20" /><path
         d="M 11993.9,14237.4 H 9265.77 c -1.29,13.4 -2,26.9 -2,40.7 0,231.6 187.68,419.4 419.18,419.4 73.99,0 143.45,-19.2 203.79,-52.9 85.24,234.8 310.16,402.6 574.36,402.6 222,0 416.3,-118.5 523.2,-295.7 46.6,14.5 96.2,22.3 147.5,22.3 198.7,0 370.1,-117.1 449,-286 27.2,7.1 55.6,10.8 85,10.8 160,0 293.8,-111.6 328.1,-261.2"
         style="fill:#dee9f4;fill-opacity:1;fill-rule:nonzero;stroke:none"
         id="path22" /><path
         d="m 15944.8,8216.6 v 0.1 c -226.1,-54.4 -460.1,-100.3 -534.6,-115.5 l -51,-434.9 c 15.5,-0.6 26.2,-0.9 30.7,-0.7 30.3,1.3 620.3,192.6 620.2,192.8 284.6,112.5 586.6,223.5 635.2,241.3 l -57.8,268.3 c -17.8,-20.1 -485.5,-108.6 -642.7,-151.4"
         style="fill:#f48c7f;fill-opacity:1;fill-rule:nonzero;stroke:none"
         id="path24" /><path
         d="m 9768.95,1701.1 c 186.03,159.4 298.55,328.6 269.75,496.8 -51.41,300 -477.37,107.2 -493.56,323.8 -28.16,376.9 1597.66,288.8 1543.96,772 -52.5,472.5 -1247.52,-300.4 -1297.51,41.1 -30.88,210.9 1775.91,193 1812.61,672.5 36.7,479.4 -1307.3,15.6 -1572.1,156.4 -264.84,140.8 2547.3,994.1 2265.8,1621.1 -229.5,511.4 -2104.3,-684.9 -2413.05,-564.8 -308.8,120.1 1189.25,1132.4 1652.35,2058.7 478.9,957.9 87.5,1440.2 -670.5,678.4 C 10108.8,7195.3 8861.54,5741.2 8810.28,6179.2 8759.02,6617.1 9611.01,8236.5 8918.9,8115.3 7701.36,7902 7600.82,5887.4 7223.4,4312.9 7183.44,4146.1 6776.14,6109.1 6282.38,5517.4 6028.4,5213 6499.42,2971.7 6793.02,1701.1 h 2975.93"
         style="fill:#96d9c9;fill-opacity:1;fill-rule:nonzero;stroke:none"
         id="path26" /><path
         d="m 15202.2,16221 h -3726.5 c 46.9,204.4 229.7,356.9 448.2,356.9 40.1,0 79,-5.2 116.1,-14.9 107.8,230.8 341.9,390.7 613.3,390.7 70.1,0 137.8,-10.7 201.4,-30.5 146.1,242.1 411.6,403.9 714.8,403.9 360.8,0 668,-229.1 784.5,-549.8 82.4,45.9 177.3,72.2 278.3,72.2 316.3,0 572.6,-256.5 572.6,-572.9 0,-18.8 -1,-37.3 -2.7,-55.6"
         style="fill:#dee9f4;fill-opacity:1;fill-rule:nonzero;stroke:none"
         id="path28" /><path
         d="m 22986.9,14142.7 h -2031.4 c 25.6,111.4 125.3,194.5 244.4,194.5 21.8,0 43,-2.8 63.3,-8 58.7,125.8 186.3,212.9 334.3,212.9 38.2,0 75.1,-5.8 109.8,-16.6 79.6,131.9 224.3,220.2 389.6,220.2 196.7,0 364.2,-124.9 427.7,-299.8 44.9,25.1 96.6,39.4 151.7,39.4 172.4,0 312.1,-139.8 312.1,-312.3 0,-10.2 -0.5,-20.3 -1.5,-30.3"
         style="fill:#dee9f4;fill-opacity:1;fill-rule:nonzero;stroke:none"
         id="path30" /><path
         d="m 16579.2,1835.5 c 21.2,-84.5 104,-157.7 224.3,-220.8 h 3909.8 c 126.6,611.7 202,1314.6 -76.6,1453.3 -224.5,111.7 -302.6,-264.6 -454.5,-170.1 -264.3,164.5 581.9,1200.4 234.4,1399.6 -339.7,194.9 -404.5,-973.7 -655.8,-840.9 -155.3,82.1 731.8,1272.1 430.7,1529.5 -301.1,257.4 -643.6,-859.8 -865.6,-967 -222,-107.2 572.7,2173.3 19.3,2291.3 -451.3,96.2 -563.8,-1729 -793.2,-1875.5 -229.5,-146.5 -177.1,1339.4 -568.9,2096.9 -405.2,783.3 -915.6,758.1 -776.1,-115.1 139.6,-873.1 502.6,-2407.5 186.5,-2228.6 -316.2,178.9 -980.5,1531.3 -1235.2,1013.1 -447.9,-911.4 136.7,-1719.4 1001.2,-2735.2 91.5,-107.5 -734.7,-15.3 -580.3,-630.5"
         style="fill:#96d9c9;fill-opacity:1;fill-rule:nonzero;stroke:none"
         id="path32" /><path
         d="m 3967.41,1696.3 c 0,0 3250.53,2823.5 7441.79,2997 1407.4,58.2 7170.4,-1109.5 12023.3,-2027 204,-38.5 645.1,-416.1 851.7,-454.9 2297.4,-431.9 4438.4,-523.1 5130.9,-551 l -25447.69,35.9"
         style="fill:#50bfa5;fill-opacity:1;fill-rule:nonzero;stroke:none"
         id="path34" /><path
         d="m 24624.2,2953 c 12.4,101.9 18.8,206.1 18.8,312.2 0,1182.7 -799.2,2141.6 -1785.2,2141.6 -986,0 -1785.2,-958.9 -1785.2,-2141.6 0,-106.1 6.4,-210.3 18.8,-312.2 h 3532.8"
         style="fill:#184655;fill-opacity:1;fill-rule:nonzero;stroke:none"
         id="path36" /><path
         d="m 26644.6,3479.3 c 12.4,143.7 18.8,290.7 18.8,440.3 0,1668 -799.2,3020.2 -1785.2,3020.2 -986,0 -1785.2,-1352.2 -1785.2,-3020.2 0,-149.6 6.4,-296.6 18.8,-440.3 h 3532.8"
         style="fill:#3c8f7c;fill-opacity:1;fill-rule:nonzero;stroke:none"
         id="path38" /><path
         d="m 25990.9,1628.6 c -12.4,101.9 -18.8,206.1 -18.8,312.2 0,1182.7 799.2,2141.6 1785.2,2141.6 985.9,0 1785.2,-958.9 1785.2,-2141.6 0,-106.1 -6.4,-210.3 -18.9,-312.2 h -3532.7"
         style="fill:#3c8f7c;fill-opacity:1;fill-rule:nonzero;stroke:none"
         id="path40" /><path
         d="m 23133.8,1628.6 c -15.8,143.7 -23.9,290.7 -23.9,440.3 0,1668 1013.2,3020.2 2263.1,3020.2 1249.9,0 2263.1,-1352.2 2263.1,-3020.2 0,-149.6 -8.2,-296.6 -23.9,-440.3 h -4478.4"
         style="fill:#184655;fill-opacity:1;fill-rule:nonzero;stroke:none"
         id="path42" /><path
         d="m 24871.4,5089.1 c -624.6,0 -1182.7,-429 -1551,-1101.8 -187.6,61.8 -386.8,95.1 -593.4,95.1 -1109.1,0 -2008.2,-958.9 -2008.2,-2141.6 0,-106.1 7.3,-210.3 21.3,-312.2 h 6118.3 c 13.9,143.7 21.2,290.7 21.2,440.3 0,1668 -899.1,3020.2 -2008.2,3020.2"
         style="fill:#3c8f7c;fill-opacity:1;fill-rule:nonzero;stroke:none"
         id="path44" /><path
         d="m 24377.5,9555.7 c 1.5,50.1 70.7,89.1 107.4,44.6 36.6,-44.3 35.1,-14.4 70.7,-110.2 102.3,-275.2 252.6,-541.5 427.6,-774.1 335.3,-445.8 667.2,-670.7 1044.1,-893.5 -155.3,349.8 -259.3,723.3 -272.6,1100 -4.8,137.3 -2.2,279.7 56.6,405.7 16.4,35.2 79.4,27.9 85.8,-11.3 31.6,-194.4 -15,-340.9 48,-688.9 150.1,-830.2 744.4,-1710.7 1317.6,-2327.4 -109.9,1044 -163.2,2230.3 33.4,3283.2 32.2,172.7 83.5,337 131.1,505.7 11.3,39.7 67.7,22.7 60.7,-16.7 -9.9,-56.2 -103.5,-780.7 -109.2,-830.7 -90.9,-801.9 -72.7,-1690.2 -2,-2500.3 444.7,602.2 742.3,1306.5 881.5,2041.9 41.1,217.4 52.1,441.9 109.8,655.2 7.9,29.4 56.5,32.6 62.5,0 59.3,-319.6 -59.3,-885.1 -145.8,-1192.4 -175.2,-622.6 -455.5,-1180.7 -838.7,-1679.3 -14.8,-19.4 615.4,-4891.5 598.5,-4953.2 -28.6,-104.1 -209.8,-177.1 -237.9,7.5 -11.5,75.2 -357.8,3037.6 -514.1,4409.9 -59,32.5 -97,90.4 -248.9,261.1 -351.6,395.2 -699.2,886.9 -931.6,1350.6 -139.4,8 -1146.3,497.9 -1645.7,1613.4 -14.4,32.2 -79.3,183.2 -88.5,216.9 -8,28.8 -1.1,53.8 -0.3,82.3"
         style="fill:#184655;fill-opacity:1;fill-rule:nonzero;stroke:none"
         id="path46" /><path
         d="m 27611.1,11135.4 c -11.4,149.9 -17.4,303.3 -17.4,459.3 0,1740.3 738.6,3151 1649.7,3151 911.1,0 1649.7,-1410.7 1649.7,-3151 0,-156 -5.9,-309.4 -17.4,-459.3 h -3264.6"
         style="fill:#184655;fill-opacity:1;fill-rule:nonzero;stroke:none"
         id="path48" /><path
         d="m 25744.1,11909.8 c -11.5,211.5 -17.4,427.7 -17.4,647.8 0,2454.2 738.6,4443.7 1649.7,4443.7 911.1,0 1649.7,-1989.5 1649.7,-4443.7 0,-220.1 -6,-436.3 -17.4,-647.8 h -3264.6"
         style="fill:#3c8f7c;fill-opacity:1;fill-rule:nonzero;stroke:none"
         id="path50" /><path
         d="m 26348.1,9186.8 c 11.5,149.9 17.4,303.3 17.4,459.3 0,1740.2 -738.5,3151 -1649.7,3151 -911.1,0 -1649.7,-1410.8 -1649.7,-3151 0,-156 6,-309.4 17.4,-459.3 h 3264.6"
         style="fill:#3c8f7c;fill-opacity:1;fill-rule:nonzero;stroke:none"
         id="path52" /><path
         d="m 28988.4,9186.8 c 14.5,211.4 22.1,427.7 22.1,647.8 0,2454.2 -936.3,4443.7 -2091.4,4443.7 -1155,0 -2091.3,-1989.5 -2091.3,-4443.7 0,-220.1 7.6,-436.4 22.1,-647.8 h 4138.5"
         style="fill:#184655;fill-opacity:1;fill-rule:nonzero;stroke:none"
         id="path54" /><path
         d="m 27382.6,14278.3 c 577.3,0 1093,-631.2 1433.3,-1621 173.3,90.8 357.5,139.8 548.4,139.8 1024.9,0 1855.7,-1410.8 1855.7,-3151 0,-156 -6.7,-309.4 -19.6,-459.3 h -5653.9 c -12.9,211.4 -19.6,427.7 -19.6,647.8 0,2454.2 830.8,4443.7 1855.7,4443.7"
         style="fill:#3c8f7c;fill-opacity:1;fill-rule:nonzero;stroke:none"
         id="path56" /><path
         d="m 5804.16,7072.9 -169.04,408.5 c -131.16,300.4 -466.75,443.9 -749.58,320.5 C 4172.81,7490.7 3862.95,6624.7 4193.45,5867.6 l 241.63,-553.5 c 105.86,-242.5 69.01,-509.3 -73.74,-697.4 -129.64,-170.8 -150.82,-408.3 -60.92,-614.3 l 127.38,-291.8 c 137.92,-315.9 406.25,-549.9 724.53,-646.4 186.14,-56.5 350.52,-196.2 437.45,-395.3 l 180.37,-413.2 c 199.41,-456.8 709.67,-675 1139.7,-487.2 l 245.35,107.1 c 430.02,187.7 616.98,710.2 417.57,1167 -322.47,546.2 -296.75,953.9 -182.49,1230.4 168.02,406.5 166.07,874.3 -15.69,1290.7 l -25.49,58.4 c -191.83,439.5 -562.28,767.6 -1003.45,908.1 -194.77,62 -397.77,213.5 -541.49,542.7"
         style="fill:#3c8f7c;fill-opacity:1;fill-rule:nonzero;stroke:none"
         id="path58" /><path
         d="M 8558.29,1689.2 C 8308,2013.7 5956.69,3748.4 5061.76,4038.1 c -987.84,319.8 -56.8,-950.3 -56.8,-950.3 0,0 -1752.42,1916.2 -2395.49,1743.4 -589.48,-158.3 0,-1346.1 0,-1346.1 0,0 -663.93,657.7 -1469.08,657.7 -783.605,0 547.45,-2332.6 619.26,-2457.5 l 6798.64,3.9"
         style="fill:#96d9c9;fill-opacity:1;fill-rule:nonzero;stroke:none"
         id="path60" /><path
         d="m 14284.6,11351 c -135,-55.6 -266.7,46.3 -574.3,-144.3 -370,-229.3 -192.9,-427.4 -527.2,-366.2 -805.2,147.4 -1328.2,-506 -1138.7,-1042.8 316.8,-897.7 970,-942.7 1360.6,-868.4 472.9,89.9 547,525.3 738.9,612.5 191.9,87.3 383,-257.7 713.6,-15.8 949.6,694.8 1013.1,1336.1 393.9,1562.9 -265.1,97.2 -291.9,539.7 -966.8,262.1"
         style="fill:#184655;fill-opacity:1;fill-rule:nonzero;stroke:none"
         id="path62" /><path
         d="m 17177.5,12009.3 c 1850.9,-244.4 3328.6,-614.6 3300.6,-827 156.3,1184 -1217.4,2341.9 -3068.3,2586.3 -1851,244.4 -3478.1,-517.3 -3634.5,-1701.2 28.1,212.3 1551.3,186.3 3402.2,-58.1"
         style="fill:#f47458;fill-opacity:1;fill-rule:nonzero;stroke:none"
         id="path64" /><path
         d="m 20478.1,11182.3 v 0 0 z"
         style="fill:#96d9c9;fill-opacity:1;fill-rule:nonzero;stroke:none"
         id="path66" /><path
         d="m 15216.6,7966.9 c 0,0 -147,463.7 -153.1,517 -6.2,53.3 51.2,380.7 51.2,380.7 l -38,646.9 c 0,0 543.1,-1253.7 578.6,-1518.3 l -438.7,-26.3"
         style="fill:#f48c7f;fill-opacity:1;fill-rule:nonzero;stroke:none"
         id="path68" /><path
         d="m 13245.4,2732 -214.7,-197.1 c -30.1,-22.3 -110.6,-71 -133.9,-95 -87.8,-90.3 474.8,-315.5 424,-187.6 -4.6,11.6 -13.3,113.5 13.9,146.8 42,51.4 117.4,124.7 117.4,124.7 l -206.7,208.2"
         style="fill:#f7a491;fill-opacity:1;fill-rule:nonzero;stroke:none"
         id="path70" /><path
         d="m 13320.6,2254.1 c 0,0 -120.8,64.5 -175.7,104.7 -54.8,40.3 -61.7,160.6 -111.1,178.3 -54.2,19.4 -282.3,-214 -282.3,-214 0,0 445.8,-484.8 679,-646.3 50.3,-34.8 111.2,-23.7 132.7,-24.1 82.4,-1.5 -113,348.8 -242.6,601.4"
         style="fill:#f47458;fill-opacity:1;fill-rule:nonzero;stroke:none"
         id="path72" /><path
         d="m 15943.2,2350.4 66.6,-322.9 c 4.1,-42.1 4.7,-148.6 14.4,-185.3 36.6,-137.6 578.9,280.4 426,304.7 -13.9,2.3 -82.7,29.9 -106.3,72.4 -41.2,73.9 -80.2,212.2 -80.2,212.2 l -320.5,-81.1"
         style="fill:#f7a491;fill-opacity:1;fill-rule:nonzero;stroke:none"
         id="path74" /><path
         d="m 16448.3,2147.8 c 0,0 -132,-80.5 -202.5,-110.6 -70.6,-30.2 -199.6,53.6 -245.1,15.7 -50.1,-41.6 31.4,-410.7 31.4,-410.7 0,0 927.6,246 1125,373.8 78.2,50.6 -389.9,112.3 -708.8,131.8"
         style="fill:#f47458;fill-opacity:1;fill-rule:nonzero;stroke:none"
         id="path76" /><path
         d="m 15443.9,6771.4 574.9,-2299.3 363.4,-2226.7 -452.5,-61.1 c 0,0 -637.5,1702.9 -655.2,1898.9 -17.8,195.9 -337.7,1112.1 -337.7,1112.1 l 507.1,1576.1"
         style="fill:#184655;fill-opacity:1;fill-rule:nonzero;stroke:none"
         id="path78" /><path
         d="m 14102.3,7037.6 c 0,0 43.1,-2204.6 7.6,-2409.5 -35.5,-204.9 -998.6,-1952.9 -998.6,-1952.9 l 324.3,-352.6 c 0,0 1377.9,1598.7 1438.6,1739.7 95.2,221.1 565.2,2713.7 565.2,2713.7 l -1337.1,261.6"
         style="fill:#184655;fill-opacity:1;fill-rule:nonzero;stroke:none"
         id="path80" /><path
         d="m 14509.6,9639.1 c 0,0 -407.3,25.9 -568.4,-149.5 -161.2,-175.4 357.4,-1562.8 386.7,-1786.1 29.3,-223.2 -240.4,-668.3 -240.4,-668.3 0,0 1120.9,-524.5 1394.4,-343.8 0,0 -43.9,1789 -73.2,1948.4 -29.3,159.5 -273.4,807.9 -332,871.7 -58.6,63.8 -567.1,127.6 -567.1,127.6"
         style="fill:#f7cc7f;fill-opacity:1;fill-rule:nonzero;stroke:none"
         id="path82" /><path
         d="m 14584.9,10203.6 c 0,0 -2.2,-12.3 -6.2,-33.3 -19.2,-100.6 -93.1,-434.5 -143,-526.2 -60.3,-110.9 206.5,-464.7 463.2,-421.5 76.4,12.8 -64.6,325 -57.8,358.1 13,63.3 30.5,149.6 48.5,238.2 10.2,49.9 20.5,100.5 30.1,148.1 27.5,135.3 49.9,245.9 49.9,245.9 l -384.7,-9.3"
         style="fill:#f7a491;fill-opacity:1;fill-rule:nonzero;stroke:none"
         id="path84" /><path
         d="m 14578.7,10170.3 c 4,21 6.2,33.3 6.2,33.3 l 384.7,9.3 c 0,0 -22.4,-110.6 -49.9,-245.9 -9.6,-47.3 -19.8,-97.6 -29.9,-147.3 -59.4,8.5 -121.4,36.6 -183.7,89.6 -67.8,57.8 -112.3,127.2 -139.1,201.3 4.7,23.7 8.7,44.1 11.7,59.7"
         style="fill:#f47458;fill-opacity:1;fill-rule:nonzero;stroke:none"
         id="path86" /><path
         d="m 14843.8,11054.4 c 0,0 -181.3,20.4 -295,-122.6 -113.6,-143.1 -236.1,-585.4 46.2,-825.9 282.4,-240.5 561.3,31.8 602.7,320.4 41.4,288.6 57.5,638.5 -353.9,628.1"
         style="fill:#f7a491;fill-opacity:1;fill-rule:nonzero;stroke:none"
         id="path88" /><path
         d="m 15281.2,10430.5 c -33.7,-63.7 -90.2,-99 -126.3,-78.8 -36.1,20.2 -38,88.3 -4.3,152 33.7,63.7 90.2,99.1 126.3,78.8 36.1,-20.2 38,-88.2 4.3,-152"
         style="fill:#f7a491;fill-opacity:1;fill-rule:nonzero;stroke:none"
         id="path90" /><path
         d="m 14864.1,11101.7 c 0,0 -242.2,-420.6 -415.5,-440.1 -173.3,-19.4 -196.1,-242.9 -196.1,-242.9 0,0 62,515 233.5,614.3 171.6,99.4 378.1,68.7 378.1,68.7"
         style="fill:#184655;fill-opacity:1;fill-rule:nonzero;stroke:none"
         id="path92" /><path
         d="m 14494,10555.9 c 14.1,-74.6 -14.3,-143.2 -63.3,-153 -49.1,-9.8 -100.3,42.8 -114.4,117.5 -14.1,74.7 14.3,143.2 63.3,153 49.1,9.9 100.3,-42.8 114.4,-117.5"
         style="fill:#f7a491;fill-opacity:1;fill-rule:nonzero;stroke:none"
         id="path94" /><path
         d="m 14702.1,10307 258,-55.1 c 0,0 -26.9,-96.8 -141.1,-75.9 -139.2,25.6 -116.9,131 -116.9,131"
         style="fill:#ffffff;fill-opacity:1;fill-rule:nonzero;stroke:none"
         id="path96" /><path
         d="m 6044.52,4863.4 c -216.27,563.9 -428.14,1128.1 -581.89,1714.7 -473.15,1805.4 -358.93,3121.3 -341.28,3754 2.33,83.5 -131.49,106.5 -143.17,20.2 -40.22,-297 -49.16,-598.7 -51.13,-898.3 -3.33,-506.3 27.38,-1012.9 92.14,-1518.8 -347.05,-90.6 -675.39,45.1 -943.98,288.7 -463.01,420.1 -628.29,979.9 -701.07,1600.2 -7.44,63.3 -9.76,123.3 -61.23,159.9 -11.45,32.5 -58.85,42.5 -70.61,-6 -73.36,-75.6 -37.82,-227.3 -26.53,-325 152.79,-1320.8 953.93,-1961 1598.96,-1955.5 70.73,0.7 156.74,4.2 233.64,25.6 46.49,-316 106.27,-629.7 179.4,-940.2 139.35,-591.5 334.84,-1162.3 549.95,-1727.9 735.55,-1933.7 970.23,-2921.6 1179.21,-3481.3 31.61,-112.6 197.66,-65.4 168.62,48.5 -10.35,40.6 -584.22,1945.7 -1081.03,3241.2"
         style="fill:#184655;fill-opacity:1;fill-rule:nonzero;stroke:none"
         id="path98" /><path
         d="m 8991.67,9947.3 c -6.97,41.6 -31.23,69.2 -40.45,108.1 -12.18,51.4 -95.88,56.6 -104.64,0 -5.01,-32.3 -22.92,-52.2 -29.87,-85.3 -22.43,-107 31.8,-708.6 -109.77,-1629.4 -37.62,-244.8 -79.18,-488.2 -160.51,-721.8 -131.44,-377.6 -371,-784.6 -668.87,-1041.9 -9.45,539.4 -41.65,1078.1 -106.19,1614 -38.63,320.7 -87.37,639.8 -146.57,957 -28.82,154.5 -60.01,308.5 -93.55,462 -35.19,161 -68.33,315.6 -145.26,461.4 -23.63,44.7 -90.78,23.9 -90.89,-25.7 -0.31,-143 28.22,-274.7 57.98,-413.6 29.62,-138.3 57.35,-277.1 83.18,-416.2 191.39,-1031.2 263.37,-1946.8 262.58,-2979.2 -315.56,397.8 -591.45,874.3 -795.88,1342.2 -245.71,562.5 -411.22,1167.8 -480.1,1782.1 -19.28,171.8 -30.99,344.6 -34.67,517.6 -1.9,89.5 -3.73,179.1 -5.52,268.6 -0.92,46.1 -18.54,185 -95.98,144.3 -71.25,-37.4 -64.5,-121 -70.46,-194 -6.5,-79.6 -7.07,-159 -6.07,-238.8 1.91,-153 10.08,-305.8 24.22,-458 102.42,-1103.1 517.75,-2193.5 1149.26,-3087 96.26,-136.2 195.67,-282.1 312.57,-401 -26.92,-1765.6 -288.59,-3995.9 -293.16,-4174.1 -1.01,-39.3 7.85,-79.6 13.64,-118.5 11.95,-80.1 116.99,-61.5 138.46,0 40.57,116.4 36.41,161.7 96.92,805.8 107.92,1148.5 228.8,3779.8 228.35,3886.5 374.95,270 640.45,685.3 813.95,1119 92.05,230.2 146.08,467 186.6,712.2 137.81,833.9 133.52,1667.3 110.7,1803.7"
         style="fill:#184655;fill-opacity:1;fill-rule:nonzero;stroke:none"
         id="path100" /><path
         d="m 6414.19,11388.2 c 14.22,127.2 21.62,257.3 21.62,389.7 0,1476.5 -915.51,2673.4 -2044.84,2673.4 -1129.33,0 -2044.84,-1196.9 -2044.84,-2673.4 0,-132.4 7.4,-262.5 21.61,-389.7 h 4046.45"
         style="fill:#184655;fill-opacity:1;fill-rule:nonzero;stroke:none"
         id="path102" /><path
         d="m 8728.4,12045.2 c 14.22,179.4 21.61,362.9 21.61,549.6 0,2082.3 -915.5,3770.3 -2044.83,3770.3 -1129.34,0 -2044.85,-1688 -2044.85,-3770.3 0,-186.7 7.4,-370.2 21.62,-549.6 H 8728.4"
         style="fill:#3c8f7c;fill-opacity:1;fill-rule:nonzero;stroke:none"
         id="path104" /><path
         d="m 4707.09,9734.9 c -18.02,179.4 -27.4,362.9 -27.4,549.6 0,2082.2 1160.58,3770.2 2592.24,3770.2 1431.65,0 2592.24,-1688 2592.24,-3770.2 0,-186.7 -9.38,-370.2 -27.4,-549.6 H 4707.09"
         style="fill:#184655;fill-opacity:1;fill-rule:nonzero;stroke:none"
         id="path106" /><path
         d="m 6697.43,14054.7 c -715.52,0 -1354.73,-535.5 -1776.6,-1375.3 -214.81,77.1 -443.07,118.6 -679.68,118.6 -1270.35,0 -2300.17,-1196.9 -2300.17,-2673.4 0,-132.4 8.32,-262.5 24.31,-389.7 H 8973.3 c 15.99,179.4 24.32,362.9 24.32,549.6 0,2082.2 -1029.83,3770.2 -2300.19,3770.2"
         style="fill:#3c8f7c;fill-opacity:1;fill-rule:nonzero;stroke:none"
         id="path108" /><path
         d="m 2110.67,5763.3 c 75.39,-45.6 144.49,-106.9 213.28,-161.7 374.32,-298.2 754.1,-586.7 1270.45,-1193.4 690.39,-811.1 1206.09,-1732.3 1520.58,-2738.2 11.26,-36 67.98,-20.6 56.54,15.6 -204.61,647.1 -494.78,1266.1 -859.7,1837.8 -985.9,1544.7 -2214.44,2247.9 -2201.15,2239.9"
         style="fill:#355389;fill-opacity:1;fill-rule:nonzero;stroke:none"
         id="path110" /><path
         d="m 5055.11,3918.3 c 517.12,-515 967.94,-1098.7 1304.97,-1747.8 94.62,-182.3 174.67,-369.8 257.17,-557.6 10.94,-24.9 53.37,-7.1 44.15,18.7 -9.2,25.7 -18.4,51.4 -27.6,77.2 -5.4,15.1 -32.73,14.3 -30.3,-4.1 3.48,-26.5 6.96,-53.1 10.45,-79.6 15.81,2.2 31.63,4.3 47.45,6.5 -128.19,339.4 -306.07,666.5 -497.5,973.7 -573.77,920.8 -1167.88,1371.9 -1108.79,1313"
         style="fill:#355389;fill-opacity:1;fill-rule:nonzero;stroke:none"
         id="path112" /><path
         d="m 2731.83,5735.5 c -14.1,-28.3 -72.29,-104.9 -80.17,-196.3 -15.27,-87.8 19.77,-190.4 21.53,-186.4 5.35,-1.4 -86.9,57.7 -127.73,166 -47.84,102.7 -44.27,254.5 -9.18,309.3 57.1,121.1 181.36,149.3 213,98.6 33.1,-50.2 9.98,-127.6 -17.45,-191.2"
         style="fill:#355389;fill-opacity:1;fill-rule:nonzero;stroke:none"
         id="path114" /><path
         d="m 3588.52,4872.8 c -10.61,-29.7 -59.14,-112.3 -56.16,-203.7 -4.75,-88.6 42.01,-185.9 43.27,-181.7 5.46,-0.8 -92.75,46.7 -145.91,149 -59.42,95.8 -73.79,246.4 -45.55,304.8 42.21,126.5 161.8,169.2 199.08,122.8 38.64,-45.7 24.9,-125 5.27,-191.2"
         style="fill:#355389;fill-opacity:1;fill-rule:nonzero;stroke:none"
         id="path116" /><path
         d="m 4679.04,4447.9 c -21.95,-7.5 -91.94,-17.6 -143.13,-61.6 -53.18,-38.2 -87.57,-110.2 -84.59,-109 2.09,-3.5 -15.95,75.3 18.31,153.3 27.7,78.7 107.7,156.6 154.37,167.3 92.28,34 172.07,-15.5 162.61,-58.5 -8.42,-43.5 -60.39,-72.2 -107.57,-91.5"
         style="fill:#355389;fill-opacity:1;fill-rule:nonzero;stroke:none"
         id="path118" /><path
         d="m 5696.82,3638.8 c -15.28,-17.5 -70.94,-61.2 -93.48,-124.9 -27.14,-59.7 -21.16,-139.3 -19.17,-136.8 3.55,-2 -51.25,57.3 -60.29,142.1 -15.09,82 15.58,189.5 50.75,222.1 63.1,75.6 156.88,72.6 170.04,30.5 14.3,-41.8 -16.51,-92.7 -47.85,-133"
         style="fill:#355389;fill-opacity:1;fill-rule:nonzero;stroke:none"
         id="path120" /><path
         d="m 5345.72,4015.7 c -15.29,-17.5 -70.94,-61.2 -93.48,-124.9 -27.14,-59.7 -21.17,-139.4 -19.17,-136.8 3.55,-2 -51.25,57.3 -60.3,142 -15.07,82.1 15.59,189.6 50.76,222.2 63.1,75.6 156.88,72.5 170.04,30.5 14.3,-41.9 -16.51,-92.7 -47.85,-133"
         style="fill:#355389;fill-opacity:1;fill-rule:nonzero;stroke:none"
         id="path122" /><path
         d="m 4966.19,3686.9 c 19.86,12 72.52,59.4 138.97,70.5 63.35,16.4 140.49,-3.4 137.67,-4.9 1.35,-3.8 -47.33,60.6 -128.97,84.3 -77.96,29.2 -188.88,17.7 -226.98,-11.4 -85.24,-49.1 -98.59,-142.3 -59.62,-162.6 38.64,-21.4 93.94,0.1 138.93,24.1"
         style="fill:#355389;fill-opacity:1;fill-rule:nonzero;stroke:none"
         id="path124" /><path
         d="m 5338.71,3277.9 c 19.85,12.1 72.51,59.4 138.96,70.6 63.35,16.4 140.49,-3.4 137.67,-5 1.35,-3.8 -47.33,60.6 -128.97,84.3 -77.96,29.2 -188.88,17.7 -226.98,-11.4 -85.23,-49.1 -98.58,-142.2 -59.61,-162.6 38.64,-21.4 93.93,0.2 138.93,24.1"
         style="fill:#355389;fill-opacity:1;fill-rule:nonzero;stroke:none"
         id="path126" /><path
         d="m 5611.18,2928.6 c 19.86,12 72.51,59.4 138.96,70.5 63.35,16.4 140.49,-3.3 137.67,-4.9 1.35,-3.8 -47.33,60.6 -128.97,84.3 -77.96,29.2 -188.87,17.7 -226.98,-11.4 -85.23,-49.1 -98.59,-142.3 -59.61,-162.6 38.64,-21.4 93.93,0.2 138.93,24.1"
         style="fill:#355389;fill-opacity:1;fill-rule:nonzero;stroke:none"
         id="path128" /><path
         d="m 4363.51,2579.3 c 19.86,12 72.52,59.4 138.97,70.5 63.34,16.4 140.49,-3.4 137.67,-4.9 1.34,-3.9 -47.34,60.6 -128.98,84.3 -77.96,29.2 -188.88,17.7 -226.98,-11.4 -85.23,-49.1 -98.58,-142.3 -59.61,-162.6 38.64,-21.4 93.93,0.1 138.93,24.1"
         style="fill:#355389;fill-opacity:1;fill-rule:nonzero;stroke:none"
         id="path130" /><path
         d="m 4787.39,4182.1 c -21.95,-7.6 -91.95,-17.7 -143.13,-61.6 -53.19,-38.2 -87.57,-110.3 -84.59,-109.1 2.09,-3.5 -15.96,75.3 18.3,153.3 27.71,78.7 107.71,156.6 154.38,167.3 92.28,34 172.07,-15.5 162.6,-58.5 -8.41,-43.5 -60.38,-72.2 -107.56,-91.4"
         style="fill:#355389;fill-opacity:1;fill-rule:nonzero;stroke:none"
         id="path132" /><path
         d="m 2368.81,5171 c 18.21,22.6 59.94,100.8 133.27,142.4 67.47,46.4 166.55,56.2 163.89,53.2 3.22,-4 -81.43,50.9 -187.47,43.8 -104.06,0.9 -229.5,-60.1 -261.89,-110.6 -79.25,-94.3 -55.27,-209.4 -0.81,-216.6 54.53,-8.6 110.33,40.4 153.01,87.8"
         style="fill:#355389;fill-opacity:1;fill-rule:nonzero;stroke:none"
         id="path134" /><path
         d="m 2893.18,4685.4 c 18.21,22.7 59.93,100.9 133.27,142.5 67.47,46.4 166.55,56.2 163.89,53.2 3.22,-4 -81.43,50.9 -187.48,43.8 -104.05,0.9 -229.49,-60.2 -261.89,-110.6 -79.24,-94.3 -55.26,-209.5 -0.81,-216.6 54.54,-8.7 110.33,40.3 153.02,87.7"
         style="fill:#355389;fill-opacity:1;fill-rule:nonzero;stroke:none"
         id="path136" /><path
         d="m 3823.65,5120.8 c 28.98,-1.5 116.58,10.5 193.21,-24.6 77.05,-27.6 143.13,-102.3 139.14,-101.9 -1.3,-4.9 -6.69,96 -74.68,178 -60.33,85 -183.26,151 -243.02,147.7 -122.61,9 -201.51,-78.1 -175.35,-126.6 25.05,-49.3 97.38,-65.8 160.7,-72.6"
         style="fill:#355389;fill-opacity:1;fill-rule:nonzero;stroke:none"
         id="path138" /><path
         d="m 3977.26,4748.1 c 28.98,-1.5 116.58,10.5 193.2,-24.6 77.06,-27.5 143.13,-102.2 139.14,-101.8 -1.29,-5 -6.68,96 -74.67,177.9 -60.34,85 -183.26,151 -243.03,147.7 -122.6,9 -201.5,-78.1 -175.34,-126.5 25.05,-49.4 97.38,-65.9 160.7,-72.7"
         style="fill:#355389;fill-opacity:1;fill-rule:nonzero;stroke:none"
         id="path140" /><path
         d="m 2059.98,5574.2 c 14.42,11.8 50.92,55.4 102.45,71.8 48.48,20.2 111.98,13.2 109.91,11.7 1.51,-2.9 -44.42,42.7 -111.94,52.3 -65.22,14.4 -152.03,-7.3 -179.02,-34.7 -62.18,-48.7 -62.29,-124.2 -29.05,-136 33.11,-12.6 74.6,10.8 107.65,34.9"
         style="fill:#355389;fill-opacity:1;fill-rule:nonzero;stroke:none"
         id="path142" /><path
         d="m 2199.24,5880.1 c -0.74,-18.7 -13.52,-74.1 4.39,-125.3 13.05,-51 56.79,-97.7 56.77,-95.1 3.22,0.5 -60.79,9.9 -109.02,58.2 -50.65,43.7 -85.52,126.3 -79.92,164.4 1.42,79.1 61.51,124.6 90.85,105 29.98,-18.9 36.28,-66.3 36.93,-107.2"
         style="fill:#355389;fill-opacity:1;fill-rule:nonzero;stroke:none"
         id="path144" /><path
         d="m 3825.85,2249.7 c 29.87,-18.7 105.68,-82.4 144.51,-121.9 106.51,-108.3 202.96,-262.6 255.62,-436.8 3.34,-11.1 4.44,-21.2 14.63,-27.6 2.46,-1.6 6.2,-0.6 7.58,2 6.22,11.6 1.04,22.4 -2.41,34.6 -24.76,87.3 -75.59,197.1 -152.14,303.7 -129.55,180.6 -225.69,222.3 -267.19,247 l -0.6,-1"
         style="fill:#355389;fill-opacity:1;fill-rule:nonzero;stroke:none"
         id="path146" /><path
         d="m 3720.43,2142.1 c 16.94,7.7 63.25,40.6 117.24,43.4 51.99,7.2 111.67,-15.7 109.28,-16.7 0.72,-3.1 -32.17,52.7 -95.07,79.1 -59.47,30.5 -148.94,31.5 -181.97,11.9 -72.44,-31.3 -91.62,-104.3 -62.42,-124.1 28.84,-20.7 74.88,-8.6 112.94,6.4"
         style="fill:#355389;fill-opacity:1;fill-rule:nonzero;stroke:none"
         id="path148" /><path
         d="m 3932.4,2402.6 c -5.43,-17.9 -31.79,-68.3 -27.39,-122.3 -0.25,-52.7 30.26,-109 30.89,-106.5 3.26,-0.3 -56.31,25 -90.75,84.1 -37.98,55.1 -50.84,143.9 -35.8,179.3 21.35,76.1 90.97,104.9 114.4,78.5 24.21,-26 18.36,-73.3 8.65,-113.1"
         style="fill:#355389;fill-opacity:1;fill-rule:nonzero;stroke:none"
         id="path150" /><path
         d="m 883.148,3167.5 c 727.072,-223 1356.402,-683.4 1961.452,-1130.7 408.01,-301.7 373.71,-358.9 459.07,-408.5 13.83,-8.1 31.69,5.3 27.2,20.9 -21.96,76.6 -105.24,141.5 -161.81,193.9 -65.84,61 -136.05,117.2 -207.95,170.8 -153.82,114.8 -313.64,222.2 -472.12,330.3 -322.4,220 -652.23,432 -1005,600.2 -193.4,92.2 -393.19,170.2 -599.201,229.1 -3.832,1.1 -5.434,-4.8 -1.641,-6"
         style="fill:#355389;fill-opacity:1;fill-rule:nonzero;stroke:none"
         id="path152" /><path
         d="m 1596.09,3270.9 c -10.62,-29.6 -59.15,-112.3 -56.16,-203.6 -4.75,-88.6 42,-185.9 43.27,-181.8 5.45,-0.8 -92.76,46.8 -145.91,149 -59.43,95.9 -73.79,246.5 -45.55,304.9 42.21,126.5 161.8,169.1 199.07,122.7 38.65,-45.7 24.9,-124.9 5.28,-191.2"
         style="fill:#355389;fill-opacity:1;fill-rule:nonzero;stroke:none"
         id="path154" /><path
         d="m 2205.76,2911.5 c -10.61,-29.6 -59.14,-112.3 -56.16,-203.7 -4.75,-88.6 42.01,-185.9 43.28,-181.7 5.45,-0.8 -92.76,46.7 -145.91,149 -59.43,95.8 -73.8,246.4 -45.55,304.9 42.2,126.4 161.79,169.1 199.07,122.7 38.65,-45.7 24.9,-125 5.27,-191.2"
         style="fill:#355389;fill-opacity:1;fill-rule:nonzero;stroke:none"
         id="path156" /><path
         d="m 1489.51,2530.5 c 14.66,27.8 42.84,119.5 112.13,178.8 62.07,63.3 165.25,94.3 163.04,90.5 4.24,-3.5 -96.97,37.2 -208.1,7.7 -110.67,-20.7 -231.26,-111.5 -255.26,-171.8 -64.69,-116.6 -15.48,-233.9 43.83,-230.2 59.68,2.1 108.81,65.8 144.36,125"
         style="fill:#355389;fill-opacity:1;fill-rule:nonzero;stroke:none"
         id="path158" /><path
         d="m 813.645,3042.5 c 14.418,11.8 50.91,55.4 102.445,71.8 48.473,20.2 111.99,13.2 109.92,11.6 1.5,-2.9 -44.428,42.8 -111.951,52.4 -65.219,14.4 -152.028,-7.4 -179.024,-34.8 -62.176,-48.7 -62.293,-124.2 -29.043,-135.9 33.106,-12.6 74.598,10.8 107.653,34.9"
         style="fill:#355389;fill-opacity:1;fill-rule:nonzero;stroke:none"
         id="path160" /><path
         d="m 952.898,3348.3 c -0.742,-18.6 -13.511,-74.1 4.399,-125.2 13.047,-51 56.783,-97.7 56.753,-95.1 3.23,0.5 -60.784,9.9 -109.011,58.2 -50.652,43.6 -85.523,126.3 -79.918,164.4 1.422,79.1 61.516,124.6 90.848,105 29.972,-19 36.277,-66.3 36.929,-107.3"
         style="fill:#355389;fill-opacity:1;fill-rule:nonzero;stroke:none"
         id="path162" /><path
         d="m 3974.78,5577.2 c 82.51,-544.9 366.03,-1034.9 561.46,-1543.5 522.77,-1360.3 608.59,-2396.3 655.62,-2511.2 4.71,-11.5 19.69,-9.5 21.21,2.9 13.01,106.6 -102.23,852.7 -329.34,1628.7 -377.62,1290.1 -772.92,1794.1 -891.09,2428 -2.22,11.9 -19.61,6.7 -17.86,-4.9"
         style="fill:#355389;fill-opacity:1;fill-rule:nonzero;stroke:none"
         id="path164" /><path
         d="M 29768.1,1487.2 H 1141.04 c -60.01,0 -108.66,48.7 -108.66,108.7 0,60 48.65,108.7 108.66,108.7 H 29768.1 c 60,0 108.6,-48.7 108.6,-108.7 0,-60 -48.6,-108.7 -108.6,-108.7"
         style="fill:#184655;fill-opacity:1;fill-rule:nonzero;stroke:none"
         id="path166" /><path
         d="m 18893.1,9252.1 c 35.7,58.5 75.2,113.8 115.9,168.2 40.8,54.2 83.1,107.2 126.7,159 43.5,51.9 88.5,102.7 134.9,152.2 46.5,49.3 94.3,97.7 145.9,142.9 -35.7,-58.6 -75.2,-113.9 -115.8,-168.2 -40.8,-54.3 -83.1,-107.2 -126.8,-159.1 -43.6,-51.8 -88.5,-102.6 -134.9,-152.1 -46.6,-49.3 -94.3,-97.7 -145.9,-142.9"
         style="fill:#ffffff;fill-opacity:1;fill-rule:nonzero;stroke:none"
         id="path168" /><path
         d="m 13470.4,14736 c 35.7,58.6 75.2,113.9 115.9,168.2 40.8,54.2 83.1,107.2 126.7,159.1 43.5,51.9 88.5,102.6 134.9,152.1 46.5,49.4 94.3,97.8 145.9,143 -35.7,-58.6 -75.1,-113.9 -115.8,-168.3 -40.8,-54.2 -83.1,-107.2 -126.7,-159 -43.7,-51.8 -88.6,-102.6 -135,-152.1 -46.6,-49.4 -94.3,-97.8 -145.9,-143"
         style="fill:#ffffff;fill-opacity:1;fill-rule:nonzero;stroke:none"
         id="path170" /><path
         d="m 11475.7,13033.6 c 35.7,58.5 75.2,113.9 115.8,168.2 40.8,54.2 83.1,107.2 126.7,159.1 43.6,51.9 88.5,102.6 134.9,152.1 46.6,49.4 94.3,97.8 145.9,142.9 -35.6,-58.5 -75.1,-113.9 -115.8,-168.2 -40.8,-54.2 -83.1,-107.2 -126.7,-159 -43.6,-51.9 -88.6,-102.6 -135,-152.1 -46.5,-49.4 -94.3,-97.8 -145.8,-143"
         style="fill:#ffffff;fill-opacity:1;fill-rule:nonzero;stroke:none"
         id="path172" /><path
         d="m 13648.5,13170.7 c 35.7,58.5 75.2,113.8 115.8,168.2 40.8,54.2 83.1,107.2 126.7,159 43.6,51.9 88.5,102.7 135,152.2 46.5,49.4 94.2,97.8 145.8,142.9 -35.6,-58.6 -75.1,-113.9 -115.7,-168.2 -40.8,-54.3 -83.1,-107.2 -126.8,-159.1 -43.6,-51.8 -88.5,-102.6 -134.9,-152.1 -46.6,-49.3 -94.3,-97.7 -145.9,-142.9"
         style="fill:#ffffff;fill-opacity:1;fill-rule:nonzero;stroke:none"
         id="path174" /><path
         d="m 11743.9,11734 c 35.6,58.6 75.1,113.9 115.8,168.2 40.8,54.3 83.1,107.2 126.7,159.1 43.5,51.9 88.5,102.6 134.9,152.1 46.5,49.4 94.3,97.8 145.9,143 -35.7,-58.6 -75.1,-113.9 -115.8,-168.3 -40.8,-54.2 -83.1,-107.2 -126.7,-159 -43.7,-51.8 -88.6,-102.6 -135,-152.1 -46.6,-49.4 -94.3,-97.8 -145.8,-143"
         style="fill:#ffffff;fill-opacity:1;fill-rule:nonzero;stroke:none"
         id="path176" /><path
         d="m 11885.3,7247.1 c 35.7,58.5 75.2,113.9 115.8,168.2 40.8,54.2 83.1,107.2 126.7,159.1 43.6,51.8 88.5,102.6 134.9,152.1 46.6,49.4 94.3,97.8 145.9,142.9 -35.6,-58.5 -75.1,-113.9 -115.8,-168.2 -40.8,-54.2 -83.1,-107.2 -126.7,-159 -43.6,-51.9 -88.6,-102.6 -135,-152.1 -46.5,-49.4 -94.3,-97.8 -145.8,-143"
         style="fill:#ffffff;fill-opacity:1;fill-rule:nonzero;stroke:none"
         id="path178" /><path
         d="m 9355.34,7126.5 c 35.68,58.5 75.18,113.8 115.83,168.2 40.8,54.2 83.1,107.1 126.69,159 43.58,51.9 88.5,102.7 134.91,152.2 46.56,49.4 94.3,97.7 145.89,142.9 -35.63,-58.6 -75.12,-113.9 -115.77,-168.3 -40.81,-54.2 -83.1,-107.1 -126.75,-159 -43.63,-51.8 -88.54,-102.6 -134.96,-152.1 -46.57,-49.3 -94.3,-97.7 -145.84,-142.9"
         style="fill:#ffffff;fill-opacity:1;fill-rule:nonzero;stroke:none"
         id="path180" /><path
         d="m 10464.9,9155.2 c 35.7,58.5 75.2,113.9 115.8,168.2 40.8,54.2 83.1,107.2 126.7,159.1 43.6,51.9 88.5,102.6 134.9,152.1 46.6,49.4 94.3,97.8 145.9,142.9 -35.6,-58.5 -75.1,-113.9 -115.8,-168.2 -40.8,-54.2 -83.1,-107.2 -126.7,-159 -43.6,-51.9 -88.6,-102.6 -135,-152.1 -46.5,-49.4 -94.3,-97.8 -145.8,-143"
         style="fill:#ffffff;fill-opacity:1;fill-rule:nonzero;stroke:none"
         id="path182" /><path
         d="m 8812.4,11077 c 35.68,58.5 75.17,113.9 115.82,168.2 40.8,54.2 83.11,107.2 126.69,159.1 43.59,51.9 88.51,102.6 134.92,152.1 46.56,49.4 94.3,97.8 145.89,142.9 -35.63,-58.5 -75.11,-113.9 -115.77,-168.2 -40.81,-54.2 -83.11,-107.2 -126.75,-159 -43.63,-51.9 -88.55,-102.6 -134.97,-152.1 -46.56,-49.4 -94.28,-97.8 -145.83,-143"
         style="fill:#ffffff;fill-opacity:1;fill-rule:nonzero;stroke:none"
         id="path184" /><path
         d="m 10203.2,15736.4 c 35.7,58.5 75.2,113.9 115.9,168.2 40.8,54.2 83.1,107.2 126.7,159.1 43.5,51.9 88.5,102.6 134.9,152.1 46.5,49.4 94.3,97.8 145.9,143 -35.7,-58.6 -75.2,-114 -115.8,-168.3 -40.8,-54.2 -83.1,-107.2 -126.8,-159 -43.6,-51.9 -88.5,-102.6 -134.9,-152.1 -46.6,-49.4 -94.3,-97.8 -145.9,-143"
         style="fill:#ffffff;fill-opacity:1;fill-rule:nonzero;stroke:none"
         id="path186" /><path
         d="m 8735.96,17092.4 c 35.68,58.5 75.17,113.8 115.82,168.2 40.8,54.2 83.1,107.2 126.69,159 43.58,51.9 88.5,102.7 134.92,152.2 46.56,49.4 94.29,97.8 145.88,142.9 -35.63,-58.6 -75.11,-113.9 -115.77,-168.2 -40.8,-54.3 -83.1,-107.2 -126.74,-159.1 -43.63,-51.8 -88.55,-102.6 -134.97,-152.1 -46.57,-49.3 -94.29,-97.7 -145.83,-142.9"
         style="fill:#ffffff;fill-opacity:1;fill-rule:nonzero;stroke:none"
         id="path188" /><path
         d="m 6174.15,13655.9 c 35.68,58.6 75.18,113.9 115.83,168.2 40.8,54.3 83.1,107.2 126.69,159.1 43.57,51.9 88.5,102.7 134.91,152.2 46.56,49.3 94.29,97.7 145.89,142.9 -35.63,-58.6 -75.12,-113.9 -115.78,-168.3 -40.8,-54.2 -83.1,-107.2 -126.74,-159 -43.63,-51.8 -88.55,-102.6 -134.96,-152.1 -46.58,-49.4 -94.3,-97.8 -145.84,-143"
         style="fill:#ffffff;fill-opacity:1;fill-rule:nonzero;stroke:none"
         id="path190" /><path
         d="m 9002.11,13170.7 c 35.68,58.5 75.18,113.8 115.82,168.2 40.81,54.2 83.11,107.2 126.7,159 43.57,51.9 88.5,102.7 134.91,152.2 46.56,49.4 94.3,97.8 145.89,142.9 -35.63,-58.6 -75.11,-113.9 -115.77,-168.2 -40.81,-54.3 -83.11,-107.2 -126.74,-159.1 -43.64,-51.8 -88.55,-102.6 -134.97,-152.1 -46.57,-49.3 -94.3,-97.7 -145.84,-142.9"
         style="fill:#ffffff;fill-opacity:1;fill-rule:nonzero;stroke:none"
         id="path192" /><path
         d="m 6174.15,9617.7 c 35.68,58.5 75.18,113.9 115.83,168.2 40.8,54.2 83.1,107.2 126.69,159.1 43.57,51.9 88.5,102.6 134.91,152.1 46.56,49.4 94.29,97.8 145.89,143 -35.63,-58.6 -75.12,-114 -115.78,-168.3 -40.8,-54.2 -83.1,-107.2 -126.74,-159 -43.63,-51.9 -88.55,-102.6 -134.96,-152.1 -46.58,-49.4 -94.3,-97.8 -145.84,-143"
         style="fill:#ffffff;fill-opacity:1;fill-rule:nonzero;stroke:none"
         id="path194" /><path
         d="m 3227.38,11002.5 c 35.68,58.6 75.17,113.9 115.82,168.2 40.8,54.2 83.1,107.2 126.69,159.1 43.58,51.9 88.5,102.6 134.92,152.1 46.56,49.4 94.29,97.8 145.88,143 -35.63,-58.6 -75.11,-114 -115.77,-168.3 -40.8,-54.2 -83.1,-107.2 -126.74,-159 -43.63,-51.8 -88.55,-102.6 -134.97,-152.1 -46.57,-49.4 -94.29,-97.8 -145.83,-143"
         style="fill:#ffffff;fill-opacity:1;fill-rule:nonzero;stroke:none"
         id="path196" /><path
         d="m 4129.31,6628.7 c 35.68,58.5 75.17,113.8 115.82,168.2 40.8,54.2 83.11,107.1 126.7,159 43.57,51.9 88.49,102.7 134.91,152.2 46.56,49.3 94.3,97.7 145.89,142.9 -35.63,-58.6 -75.12,-113.9 -115.77,-168.3 -40.81,-54.2 -83.11,-107.1 -126.75,-159 -43.63,-51.8 -88.55,-102.6 -134.96,-152.1 -46.58,-49.4 -94.3,-97.8 -145.84,-142.9"
         style="fill:#ffffff;fill-opacity:1;fill-rule:nonzero;stroke:none"
         id="path198" /><path
         d="m 6401.04,6918.8 c 35.68,58.5 75.18,113.9 115.83,168.2 40.8,54.2 83.1,107.2 126.68,159.1 43.58,51.9 88.51,102.6 134.92,152.1 46.56,49.4 94.29,97.8 145.89,142.9 -35.63,-58.5 -75.11,-113.9 -115.78,-168.2 -40.8,-54.2 -83.1,-107.2 -126.74,-159 -43.63,-51.9 -88.54,-102.6 -134.96,-152.1 -46.57,-49.4 -94.3,-97.8 -145.84,-143"
         style="fill:#ffffff;fill-opacity:1;fill-rule:nonzero;stroke:none"
         id="path200" /><path
         d="m 10628.9,2916.6 c 35.6,58.5 75.1,113.8 115.8,168.2 40.8,54.2 83.1,107.2 126.7,159 43.5,51.9 88.5,102.7 134.9,152.2 46.5,49.4 94.3,97.8 145.9,142.9 -35.7,-58.6 -75.1,-113.9 -115.8,-168.2 -40.8,-54.3 -83.1,-107.2 -126.7,-159 -43.7,-51.9 -88.6,-102.7 -135,-152.2 -46.6,-49.3 -94.3,-97.7 -145.8,-142.9"
         style="fill:#ffffff;fill-opacity:1;fill-rule:nonzero;stroke:none"
         id="path202" /><path
         d="m 12424.1,6052.1 c 35.7,58.6 75.2,113.9 115.8,168.2 40.8,54.3 83.1,107.2 126.7,159.1 43.6,51.9 88.5,102.6 134.9,152.1 46.6,49.4 94.3,97.8 145.9,143 -35.6,-58.6 -75.1,-113.9 -115.8,-168.3 -40.8,-54.2 -83.1,-107.2 -126.7,-159 -43.6,-51.8 -88.6,-102.6 -135,-152.1 -46.6,-49.4 -94.3,-97.8 -145.8,-143"
         style="fill:#ffffff;fill-opacity:1;fill-rule:nonzero;stroke:none"
         id="path204" /><path
         d="m 12383.5,3764.5 c 35.7,58.5 75.2,113.9 115.8,168.2 40.8,54.2 83.1,107.2 126.7,159.1 43.6,51.9 88.5,102.6 134.9,152.1 46.6,49.4 94.3,97.8 145.9,142.9 -35.6,-58.5 -75.1,-113.9 -115.8,-168.2 -40.8,-54.2 -83.1,-107.2 -126.7,-159 -43.6,-51.9 -88.6,-102.6 -135,-152.1 -46.6,-49.4 -94.3,-97.8 -145.8,-143"
         style="fill:#ffffff;fill-opacity:1;fill-rule:nonzero;stroke:none"
         id="path206" /><path
         d="m 9355.34,4473.5 c 35.68,58.6 75.18,113.9 115.83,168.2 40.8,54.3 83.1,107.2 126.69,159.1 43.58,51.9 88.5,102.7 134.91,152.2 46.56,49.3 94.3,97.7 145.89,142.9 -35.63,-58.6 -75.12,-113.9 -115.77,-168.3 -40.81,-54.2 -83.1,-107.2 -126.75,-159 -43.63,-51.8 -88.54,-102.6 -134.96,-152.1 -46.57,-49.4 -94.3,-97.8 -145.84,-143"
         style="fill:#ffffff;fill-opacity:1;fill-rule:nonzero;stroke:none"
         id="path208" /><path
         d="m 6705.18,4132 c 35.67,58.5 75.17,113.9 115.82,168.2 40.8,54.2 83.1,107.2 126.69,159.1 43.58,51.9 88.5,102.6 134.91,152.1 46.56,49.4 94.3,97.8 145.89,142.9 -35.63,-58.5 -75.11,-113.9 -115.77,-168.2 -40.81,-54.2 -83.11,-107.2 -126.74,-159 -43.64,-51.9 -88.55,-102.6 -134.97,-152.1 -46.57,-49.4 -94.3,-97.8 -145.83,-143"
         style="fill:#ffffff;fill-opacity:1;fill-rule:nonzero;stroke:none"
         id="path210" /><path
         d="m 4048.12,3966 c 35.67,58.6 75.17,113.9 115.82,168.2 40.8,54.2 83.1,107.2 126.69,159.1 43.58,51.9 88.5,102.6 134.92,152.1 46.55,49.4 94.29,97.8 145.88,142.9 -35.63,-58.5 -75.11,-113.9 -115.77,-168.2 -40.8,-54.2 -83.1,-107.2 -126.74,-159 -43.63,-51.9 -88.55,-102.6 -134.97,-152.1 -46.57,-49.4 -94.29,-97.8 -145.83,-143"
         style="fill:#ffffff;fill-opacity:1;fill-rule:nonzero;stroke:none"
         id="path212" /><path
         d="m 8296.63,2300.7 c 35.68,58.5 75.18,113.8 115.82,168.2 40.81,54.2 83.11,107.2 126.7,159 43.57,51.9 88.5,102.7 134.91,152.2 46.56,49.4 94.29,97.8 145.89,142.9 -35.63,-58.6 -75.12,-113.9 -115.78,-168.2 -40.8,-54.3 -83.1,-107.2 -126.74,-159.1 -43.63,-51.8 -88.55,-102.6 -134.96,-152.1 -46.58,-49.3 -94.3,-97.7 -145.84,-142.9"
         style="fill:#ffffff;fill-opacity:1;fill-rule:nonzero;stroke:none"
         id="path214" /><path
         d="m 26886.3,2451 c 35.7,58.5 75.2,113.9 115.8,168.2 40.8,54.2 83.1,107.2 126.7,159.1 43.6,51.9 88.5,102.6 135,152.1 46.5,49.4 94.2,97.8 145.8,142.9 -35.6,-58.5 -75.1,-113.9 -115.7,-168.2 -40.8,-54.2 -83.1,-107.2 -126.8,-159 -43.6,-51.9 -88.5,-102.6 -135,-152.1 -46.5,-49.4 -94.2,-97.8 -145.8,-143"
         style="fill:#ffffff;fill-opacity:1;fill-rule:nonzero;stroke:none"
         id="path216" /><path
         d="m 26401.8,4935.5 c 35.6,58.5 75.1,113.8 115.8,168.2 40.8,54.2 83.1,107.1 126.7,159 43.6,51.9 88.5,102.7 134.9,152.2 46.6,49.3 94.3,97.7 145.9,142.9 -35.6,-58.6 -75.1,-113.9 -115.8,-168.2 -40.8,-54.3 -83.1,-107.2 -126.7,-159.1 -43.7,-51.8 -88.6,-102.6 -135,-152.1 -46.6,-49.3 -94.3,-97.7 -145.8,-142.9"
         style="fill:#ffffff;fill-opacity:1;fill-rule:nonzero;stroke:none"
         id="path218" /><path
         d="m 18677,5348.4 c 35.7,58.6 75.2,113.9 115.9,168.2 40.8,54.2 83.1,107.2 126.7,159.1 43.5,51.9 88.5,102.6 134.9,152.1 46.5,49.4 94.3,97.8 145.9,143 -35.7,-58.6 -75.2,-114 -115.8,-168.3 -40.8,-54.2 -83.1,-107.2 -126.8,-159 -43.6,-51.8 -88.5,-102.6 -134.9,-152.1 -46.6,-49.4 -94.3,-97.8 -145.9,-143"
         style="fill:#ffffff;fill-opacity:1;fill-rule:nonzero;stroke:none"
         id="path220" /><path
         d="m 22857.8,7664.7 c 35.7,58.5 75.2,113.8 115.8,168.2 40.8,54.2 83.1,107.2 126.7,159 43.6,51.9 88.5,102.7 134.9,152.2 46.6,49.4 94.3,97.8 145.9,142.9 -35.6,-58.6 -75.1,-113.9 -115.8,-168.2 -40.8,-54.3 -83.1,-107.2 -126.7,-159.1 -43.6,-51.8 -88.6,-102.6 -135,-152.1 -46.5,-49.3 -94.3,-97.7 -145.8,-142.9"
         style="fill:#ffffff;fill-opacity:1;fill-rule:nonzero;stroke:none"
         id="path222" /><path
         d="m 19678.1,7247.1 c 35.7,58.5 75.2,113.9 115.8,168.2 40.8,54.2 83.1,107.2 126.7,159.1 43.6,51.8 88.5,102.6 134.9,152.1 46.6,49.4 94.3,97.8 145.9,142.9 -35.6,-58.5 -75.1,-113.9 -115.7,-168.2 -40.8,-54.2 -83.1,-107.2 -126.8,-159 -43.6,-51.9 -88.5,-102.6 -134.9,-152.1 -46.6,-49.4 -94.3,-97.8 -145.9,-143"
         style="fill:#ffffff;fill-opacity:1;fill-rule:nonzero;stroke:none"
         id="path224" /><path
         d="m 21710.3,9617.7 c 35.7,58.5 75.2,113.9 115.9,168.2 40.8,54.2 83,107.2 126.6,159.1 43.6,51.9 88.5,102.6 135,152.1 46.5,49.4 94.3,97.8 145.8,143 -35.6,-58.6 -75.1,-114 -115.7,-168.3 -40.8,-54.2 -83.1,-107.2 -126.8,-159 -43.6,-51.9 -88.5,-102.6 -134.9,-152.1 -46.6,-49.4 -94.3,-97.8 -145.9,-143"
         style="fill:#ffffff;fill-opacity:1;fill-rule:nonzero;stroke:none"
         id="path226" /><path
         d="m 21187,12030.9 c 35.7,58.5 75.2,113.8 115.8,168.2 40.8,54.2 83.1,107.1 126.7,159 43.6,51.9 88.5,102.7 134.9,152.2 46.6,49.3 94.3,97.7 145.9,142.9 -35.6,-58.6 -75.1,-113.9 -115.7,-168.3 -40.8,-54.2 -83.2,-107.1 -126.8,-159 -43.6,-51.8 -88.5,-102.6 -135,-152.1 -46.5,-49.4 -94.2,-97.8 -145.8,-142.9"
         style="fill:#ffffff;fill-opacity:1;fill-rule:nonzero;stroke:none"
         id="path228" /><path
         d="m 18893.1,11313.7 c 35.7,58.5 75.2,113.8 115.9,168.2 40.8,54.2 83.1,107.2 126.7,159 43.5,51.9 88.5,102.7 134.9,152.2 46.5,49.4 94.3,97.8 145.9,142.9 -35.7,-58.6 -75.2,-113.9 -115.8,-168.2 -40.8,-54.2 -83.1,-107.2 -126.8,-159 -43.6,-51.9 -88.5,-102.6 -134.9,-152.2 -46.6,-49.3 -94.3,-97.7 -145.9,-142.9"
         style="fill:#ffffff;fill-opacity:1;fill-rule:nonzero;stroke:none"
         id="path230" /><path
         d="m 23109.9,11719.7 c 35.6,58.5 75.1,113.8 115.8,168.2 40.8,54.2 83.1,107.2 126.7,159 43.6,51.9 88.5,102.7 134.9,152.2 46.5,49.4 94.3,97.8 145.9,142.9 -35.7,-58.6 -75.1,-113.9 -115.8,-168.2 -40.8,-54.2 -83.1,-107.2 -126.7,-159 -43.7,-51.9 -88.6,-102.6 -135,-152.1 -46.6,-49.4 -94.3,-97.8 -145.8,-143"
         style="fill:#ffffff;fill-opacity:1;fill-rule:nonzero;stroke:none"
         id="path232" /><path
         d="m 22831.3,13655.9 c 35.7,58.6 75.2,113.9 115.8,168.2 40.8,54.3 83.1,107.2 126.7,159.1 43.6,51.9 88.5,102.7 134.9,152.2 46.6,49.3 94.3,97.7 145.9,142.9 -35.6,-58.6 -75.1,-113.9 -115.8,-168.3 -40.8,-54.2 -83.1,-107.2 -126.7,-159 -43.6,-51.8 -88.5,-102.6 -135,-152.1 -46.5,-49.4 -94.2,-97.8 -145.8,-143"
         style="fill:#ffffff;fill-opacity:1;fill-rule:nonzero;stroke:none"
         id="path234" /><path
         d="m 17178.9,6460.3 c 35.7,58.5 75.2,113.8 115.8,168.2 40.8,54.2 83.1,107.2 126.7,159 43.6,51.9 88.5,102.7 134.9,152.2 46.6,49.4 94.3,97.8 145.9,142.9 -35.6,-58.6 -75.1,-113.9 -115.8,-168.2 -40.8,-54.3 -83.1,-107.2 -126.7,-159 -43.6,-51.9 -88.5,-102.7 -135,-152.2 -46.5,-49.3 -94.3,-97.7 -145.8,-142.9"
         style="fill:#ffffff;fill-opacity:1;fill-rule:nonzero;stroke:none"
         id="path236" /><path
         d="m 17082,3278 c 35.7,58.5 75.2,113.9 115.8,168.2 40.8,54.2 83.1,107.2 126.7,159.1 43.6,51.8 88.5,102.6 135,152.1 46.5,49.4 94.2,97.8 145.8,142.9 -35.6,-58.5 -75.1,-113.9 -115.7,-168.2 -40.8,-54.2 -83.1,-107.2 -126.8,-159 -43.6,-51.9 -88.5,-102.6 -134.9,-152.1 -46.6,-49.4 -94.3,-97.8 -145.9,-143"
         style="fill:#ffffff;fill-opacity:1;fill-rule:nonzero;stroke:none"
         id="path238" /><path
         d="m 18153.7,1902.8 c 35.7,58.5 75.2,113.8 115.9,168.1 40.8,54.3 83.1,107.2 126.6,159.1 43.6,51.9 88.5,102.7 135,152.2 46.5,49.3 94.2,97.7 145.8,142.9 -35.6,-58.6 -75.1,-113.9 -115.7,-168.3 -40.8,-54.2 -83.1,-107.2 -126.8,-159 -43.6,-51.8 -88.5,-102.6 -134.9,-152.1 -46.6,-49.4 -94.3,-97.8 -145.9,-142.9"
         style="fill:#ffffff;fill-opacity:1;fill-rule:nonzero;stroke:none"
         id="path240" /><path
         d="m 20300.1,3700.1 c 35.7,58.6 75.2,113.9 115.8,168.2 40.8,54.3 83.2,107.2 126.7,159.1 43.6,51.9 88.5,102.6 134.9,152.1 46.6,49.4 94.3,97.8 145.9,143 -35.6,-58.6 -75.1,-113.9 -115.7,-168.3 -40.8,-54.2 -83.1,-107.2 -126.8,-159 -43.6,-51.8 -88.5,-102.6 -134.9,-152.1 -46.6,-49.4 -94.3,-97.8 -145.9,-143"
         style="fill:#ffffff;fill-opacity:1;fill-rule:nonzero;stroke:none"
         id="path242" /><path
         d="m 22831.3,2420.9 c 35.7,58.5 75.2,113.8 115.8,168.2 40.8,54.2 83.1,107.1 126.7,159 43.6,51.9 88.5,102.7 134.9,152.2 46.6,49.3 94.3,97.7 145.9,142.9 -35.6,-58.6 -75.1,-113.9 -115.8,-168.3 -40.8,-54.2 -83.1,-107.1 -126.7,-159 -43.6,-51.8 -88.5,-102.6 -135,-152.1 -46.5,-49.3 -94.2,-97.8 -145.8,-142.9"
         style="fill:#ffffff;fill-opacity:1;fill-rule:nonzero;stroke:none"
         id="path244" /><path
         d="m 24628.9,4761.8 c 35.7,58.6 75.2,113.9 115.8,168.2 40.8,54.2 83.2,107.2 126.7,159.1 43.6,51.9 88.5,102.6 134.9,152.1 46.6,49.4 94.3,97.8 145.9,143 -35.6,-58.6 -75.1,-114 -115.7,-168.3 -40.8,-54.2 -83.1,-107.2 -126.8,-159 -43.6,-51.9 -88.5,-102.6 -134.9,-152.1 -46.6,-49.4 -94.3,-97.8 -145.9,-143"
         style="fill:#ffffff;fill-opacity:1;fill-rule:nonzero;stroke:none"
         id="path246" /><path
         d="m 25111.3,2139.8 c 35.7,58.6 75.2,113.9 115.9,168.2 40.8,54.3 83.1,107.2 126.6,159.1 43.6,51.9 88.6,102.6 135,152.1 46.5,49.4 94.3,97.8 145.8,143 -35.6,-58.6 -75.1,-113.9 -115.7,-168.3 -40.8,-54.2 -83.1,-107.2 -126.8,-159 -43.6,-51.8 -88.5,-102.6 -134.9,-152.1 -46.6,-49.4 -94.3,-97.8 -145.9,-143"
         style="fill:#ffffff;fill-opacity:1;fill-rule:nonzero;stroke:none"
         id="path248" /><path
         d="m 22857.8,6006.3 c 35.7,58.6 75.2,113.9 115.8,168.2 40.8,54.2 83.1,107.2 126.7,159.1 43.6,51.9 88.5,102.6 134.9,152.1 46.6,49.4 94.3,97.8 145.9,143 -35.6,-58.6 -75.1,-114 -115.8,-168.3 -40.8,-54.2 -83.1,-107.2 -126.7,-159 -43.6,-51.8 -88.6,-102.6 -135,-152.1 -46.5,-49.4 -94.3,-97.8 -145.8,-143"
         style="fill:#ffffff;fill-opacity:1;fill-rule:nonzero;stroke:none"
         id="path250" /><path
         d="m 25303.9,7015.3 c 35.7,58.6 75.2,113.9 115.8,168.2 40.8,54.3 83.1,107.2 126.7,159.1 43.6,51.9 88.5,102.7 134.9,152.1 46.6,49.4 94.3,97.8 145.9,143 -35.6,-58.6 -75.1,-113.9 -115.8,-168.3 -40.8,-54.2 -83.1,-107.2 -126.7,-159 -43.6,-51.8 -88.6,-102.6 -135,-152.1 -46.6,-49.4 -94.3,-97.8 -145.8,-143"
         style="fill:#ffffff;fill-opacity:1;fill-rule:nonzero;stroke:none"
         id="path252" /><path
         d="m 20228.6,13967.1 c 35.6,58.5 75.1,113.9 115.8,168.2 40.8,54.2 83.1,107.2 126.7,159.1 43.5,51.9 88.5,102.6 134.9,152.1 46.5,49.4 94.3,97.8 145.9,142.9 -35.7,-58.5 -75.1,-113.9 -115.8,-168.2 -40.8,-54.2 -83.1,-107.2 -126.7,-159 -43.7,-51.9 -88.6,-102.6 -135,-152.1 -46.6,-49.4 -94.3,-97.8 -145.8,-143"
         style="fill:#ffffff;fill-opacity:1;fill-rule:nonzero;stroke:none"
         id="path254" /><path
         d="m 16271.7,15047.2 c 35.7,58.5 75.2,113.8 115.8,168.2 40.8,54.2 83.1,107.2 126.7,159.1 43.6,51.8 88.5,102.6 134.9,152.1 46.6,49.4 94.3,97.8 145.9,142.9 -35.6,-58.6 -75.1,-113.9 -115.8,-168.2 -40.8,-54.2 -83.1,-107.2 -126.7,-159 -43.6,-51.9 -88.5,-102.6 -135,-152.1 -46.5,-49.4 -94.3,-97.8 -145.8,-143"
         style="fill:#ffffff;fill-opacity:1;fill-rule:nonzero;stroke:none"
         id="path256" /><path
         d="m 13909.8,9952.8 c 0,0 -492.1,885 -611.8,1073.1 -119.7,188.1 -431.6,935.7 -442.7,965.2 -11.1,29.4 214.8,383.2 164.3,395.3 -50.4,12.1 -106.2,-186.5 -160,-162.8 -53.8,23.8 -211,502 -241.6,478.2 -57.4,-44.4 84.7,-296.6 54.1,-312.5 -30.6,-15.9 -123.2,277.5 -183.3,268.9 -60,-8.6 114.3,-268.9 97.5,-291.9 -16.8,-23 -197.8,222.2 -230.5,170 -17.8,-28.4 166.4,-214.1 131,-231.5 -35.4,-17.4 -199.1,102.5 -216.5,67.9 -17.3,-34.6 151.5,-81.9 202,-175.1 50.4,-93.2 136.4,-133.5 172.1,-306.1 35.7,-172.5 89.1,-797 272,-1108.6 182.8,-311.5 585,-1001.1 585,-1001.1 l 408.4,171"
         style="fill:#f79c8d;fill-opacity:1;fill-rule:nonzero;stroke:none"
         id="path258" /><path
         d="m 13773.6,10239.6 c 0,0 544.3,-588.7 625.2,-825.9 81,-237.2 -78.8,-576.5 -299.5,-591.4 -220.7,-14.8 -711.9,1044.8 -711.9,1044.8 l 386.2,372.5"
         style="fill:#f7cc7f;fill-opacity:1;fill-rule:nonzero;stroke:none"
         id="path260" /><path
         d="m 16580.5,8350.6 50.8,-254.2 c 43.4,10.1 152.6,35.3 212.8,46.7 l -82.1,341.3 4.2,13.1 c 0.8,3.3 2,6.7 3.3,10.2 v 0 0 c 6.7,17.2 18.9,35.7 25.5,43.2 10.8,12.2 22.3,27.5 33.1,39.7 10.8,12.3 -8.3,59.6 -22.5,74.1 -14.3,14.5 -49,-54.1 -64.8,-71.4 -47.8,-52.1 -145.5,-213.4 -162.3,-239.8 l 2,-2.9"
         style="fill:#f48c7f;fill-opacity:1;fill-rule:nonzero;stroke:none"
         id="path262" /><path
         d="m 17223.5,12004.8 c 263.5,-34.8 519.4,-72.2 764.5,-111.2 -65.1,594.3 -205.9,1325 -313.3,1836.9 -72.2,12.6 -145.2,23.8 -218.9,33.6 -73.7,9.7 -147.1,17.8 -220,24.4 -236.7,-466.5 -562.3,-1135.6 -779.5,-1692.7 246.9,-25.9 503.7,-56.2 767.2,-91"
         style="fill:#e85d46;fill-opacity:1;fill-rule:nonzero;stroke:none"
         id="path264" /><path
         d="m 15395.3,12183.5 c 636.7,1080.9 1622.7,1558.1 1746.1,1614.6 -385.7,30.4 -758.5,17.2 -1106.8,-34.2 -905.9,-451.2 -1510.9,-1087.4 -1876.9,-1579.7 276.1,30.2 707.3,29.6 1237.6,-0.7"
         style="fill:#e85d46;fill-opacity:1;fill-rule:nonzero;stroke:none"
         id="path266" /><path
         d="m 19000,11710.2 c 511.2,-105.4 925.3,-214.1 1192.2,-313.3 -226.6,569.5 -645.2,1335.7 -1398.6,2002.7 -323,140 -679.6,249.5 -1059.9,320.3 104.3,-86.6 931.5,-802.2 1266.3,-2009.7"
         style="fill:#e85d46;fill-opacity:1;fill-rule:nonzero;stroke:none"
         id="path268" /><path
         d="m 17177.9,12014.1 c -1851,244.4 -3374.1,270.4 -3402.2,58 -28,-212.3 1449.7,-582.5 3300.6,-826.9 1851,-244.4 3374.1,-270.4 3402.2,-58.1 28,212.3 -1449.7,582.6 -3300.6,827"
         style="fill:#184655;fill-opacity:1;fill-rule:nonzero;stroke:none"
         id="path270" /><path
         d="m 17491.8,13235.4 v 0 0"
         style="fill:#f3fcff;fill-opacity:1;fill-rule:nonzero;stroke:none"
         id="path272" /><path
         d="m 17327,11987.4 -534,-4044.2 -81.3,10.7 534,4044.3 81.3,-10.8"
         style="fill:#f3fcff;fill-opacity:1;fill-rule:nonzero;stroke:none"
         id="path274" /><path
         d="m 18415.4,12956.9 c 35.7,58.6 75.2,113.9 115.8,168.3 40.8,54.2 83.1,107.1 126.7,159 43.6,51.9 88.5,102.7 134.9,152.2 46.6,49.3 94.3,97.7 145.9,142.9 -35.6,-58.6 -75.1,-113.9 -115.8,-168.3 -40.8,-54.2 -83.1,-107.1 -126.7,-159 -43.7,-51.8 -88.6,-102.6 -135,-152.1 -46.6,-49.4 -94.3,-97.8 -145.8,-143"
         style="fill:#ffffff;fill-opacity:1;fill-rule:nonzero;stroke:none"
         id="path276" /><path
         d="m 16148.7,12859.5 c 35.6,58.5 75.1,113.9 115.8,168.2 40.8,54.2 83.1,107.2 126.7,159.1 43.6,51.9 88.5,102.6 134.9,152.1 46.6,49.4 94.3,97.8 145.9,142.9 -35.7,-58.5 -75.1,-113.9 -115.8,-168.2 -40.8,-54.2 -83.1,-107.2 -126.7,-159 -43.7,-51.9 -88.6,-102.6 -135,-152.1 -46.6,-49.4 -94.3,-97.8 -145.8,-143"
         style="fill:#ffffff;fill-opacity:1;fill-rule:nonzero;stroke:none"
         id="path278" /><path
         d="m 16950.4,7675.7 c 167.1,-20.4 318.8,100.5 340.8,267.5 l 10.5,79.9 c 5.9,44.2 -25.2,84.7 -69.4,90.6 -44.2,5.8 -84.8,-25.3 -90.6,-69.5 l -10.7,-81.1 c -10.3,-78.2 -80.6,-135.8 -159,-127.4 -80.8,8.8 -138.4,82.5 -127.8,162.6 l 67.5,511.1 c 2.9,21.9 -12.5,42 -34.4,44.9 l -80.8,10.7 c -21.9,2.9 -42,-12.5 -44.9,-34.4 l -67.5,-511.2 c -22.2,-168.2 97.5,-323.1 266.3,-343.7"
         style="fill:#184655;fill-opacity:1;fill-rule:nonzero;stroke:none"
         id="path280" /><path
         d="m 16990.9,8231.9 c 7.5,16.4 13.3,34.6 17.6,53.6 4.3,20.6 6.7,47.5 3.2,58.4 -2.3,6.9 2.3,20.9 5.9,35.8 1.2,4.8 1.8,9.8 1.8,14.7 v 0.3 c -0.2,14.4 -3.2,28.4 -7.9,41.9 -4.5,12.8 -6.4,26.9 -6.3,48.4 0.1,16.7 -3.4,33.5 -11.3,48.1 -7.8,14.4 -45,10.3 -54.4,5.9 -43.7,-20.4 -191,-49.3 -187.8,-131.1 2.5,-68.4 14,-146 8.4,-173.5 -7.7,-37.7 37.2,-66.7 70.2,-75.1 62,-15.9 122.2,-11.9 160.6,72.6"
         style="fill:#f7a491;fill-opacity:1;fill-rule:nonzero;stroke:none"
         id="path282" /></g></g></svg>
